<?xml version="1.0" standalone="no"?>
<!DOCTYPE svg PUBLIC "-//W3C//DTD SVG 20010904//EN"
 "http://www.w3.org/TR/2001/REC-SVG-20010904/DTD/svg10.dtd">
<svg version="1.0" xmlns="http://www.w3.org/2000/svg"
 width="2000.000000pt" height="2000.000000pt" viewBox="0 0 2000.000000 2000.000000"
 preserveAspectRatio="xMidYMid meet">
<metadata>
Created by potrace 1.11, written by Peter Selinger 2001-2013
</metadata>
<g transform="translate(0.000000,2000.000000) scale(0.100000,-0.100000)"
fill="#000000" stroke="none">
<path d="M5104 15471 c-2 -2 -4 -386 -4 -853 l0 -848 650 0 650 0 0 -4269 c0
-4699 -5 -4352 61 -4521 81 -210 251 -377 444 -437 58 -17 177 -18 3095 -18
2918 0 3037 1 3095 18 193 60 363 227 444 437 66 169 61 -178 61 4521 l0 4269
650 0 650 0 -2 850 -3 850 -4893 3 c-2692 1 -4896 0 -4898 -2z"/>
</g>
</svg>
